<svg version="1.1" xmlns="http://www.w3.org/2000/svg" xmlns:xlink="http://www.w3.org/1999/xlink" width="1200" height="800"><defs/><g transform="scale(2,2)"><g id="background-04580deb"><rect fill="white" stroke="none" x="0" y="0" width="600" height="400" class="dcg-svg-background"/></g><g id="graphpaper-04580deb"><g id="grid-04580deb"><g><path fill="none" stroke="rgb(0,0,0)" class="dcg-svg-minor-gridline" paint-order="fill stroke markers" d=" M 7.5 0 L 7.5 400" stroke-opacity="0.3" stroke-miterlimit="10" stroke-dasharray=""/><path fill="none" stroke="rgb(0,0,0)" class="dcg-svg-minor-gridline" paint-order="fill stroke markers" d=" M 56.5 0 L 56.5 400" stroke-opacity="0.3" stroke-miterlimit="10" stroke-dasharray=""/><path fill="none" stroke="rgb(0,0,0)" class="dcg-svg-minor-gridline" paint-order="fill stroke markers" d=" M 81.5 0 L 81.5 400" stroke-opacity="0.3" stroke-miterlimit="10" stroke-dasharray=""/><path fill="none" stroke="rgb(0,0,0)" class="dcg-svg-minor-gridline" paint-order="fill stroke markers" d=" M 106.5 0 L 106.5 400" stroke-opacity="0.3" stroke-miterlimit="10" stroke-dasharray=""/><path fill="none" stroke="rgb(0,0,0)" class="dcg-svg-minor-gridline" paint-order="fill stroke markers" d=" M 130.5 0 L 130.5 400" stroke-opacity="0.3" stroke-miterlimit="10" stroke-dasharray=""/><path fill="none" stroke="rgb(0,0,0)" class="dcg-svg-minor-gridline" paint-order="fill stroke markers" d=" M 155.5 0 L 155.5 400" stroke-opacity="0.3" stroke-miterlimit="10" stroke-dasharray=""/><path fill="none" stroke="rgb(0,0,0)" class="dcg-svg-minor-gridline" paint-order="fill stroke markers" d=" M 180.5 0 L 180.5 400" stroke-opacity="0.3" stroke-miterlimit="10" stroke-dasharray=""/><path fill="none" stroke="rgb(0,0,0)" class="dcg-svg-minor-gridline" paint-order="fill stroke markers" d=" M 204.5 0 L 204.5 400" stroke-opacity="0.3" stroke-miterlimit="10" stroke-dasharray=""/><path fill="none" stroke="rgb(0,0,0)" class="dcg-svg-minor-gridline" paint-order="fill stroke markers" d=" M 229.5 0 L 229.5 400" stroke-opacity="0.3" stroke-miterlimit="10" stroke-dasharray=""/><path fill="none" stroke="rgb(0,0,0)" class="dcg-svg-minor-gridline" paint-order="fill stroke markers" d=" M 254.5 0 L 254.5 400" stroke-opacity="0.3" stroke-miterlimit="10" stroke-dasharray=""/><path fill="none" stroke="rgb(0,0,0)" class="dcg-svg-minor-gridline" paint-order="fill stroke markers" d=" M 278.5 0 L 278.5 400" stroke-opacity="0.3" stroke-miterlimit="10" stroke-dasharray=""/><path fill="none" stroke="rgb(0,0,0)" class="dcg-svg-minor-gridline" paint-order="fill stroke markers" d=" M 303.5 0 L 303.5 400" stroke-opacity="0.3" stroke-miterlimit="10" stroke-dasharray=""/><path fill="none" stroke="rgb(0,0,0)" class="dcg-svg-minor-gridline" paint-order="fill stroke markers" d=" M 328.5 0 L 328.5 400" stroke-opacity="0.3" stroke-miterlimit="10" stroke-dasharray=""/><path fill="none" stroke="rgb(0,0,0)" class="dcg-svg-minor-gridline" paint-order="fill stroke markers" d=" M 352.5 0 L 352.5 400" stroke-opacity="0.3" stroke-miterlimit="10" stroke-dasharray=""/><path fill="none" stroke="rgb(0,0,0)" class="dcg-svg-minor-gridline" paint-order="fill stroke markers" d=" M 377.5 0 L 377.5 400" stroke-opacity="0.3" stroke-miterlimit="10" stroke-dasharray=""/><path fill="none" stroke="rgb(0,0,0)" class="dcg-svg-minor-gridline" paint-order="fill stroke markers" d=" M 402.5 0 L 402.5 400" stroke-opacity="0.3" stroke-miterlimit="10" stroke-dasharray=""/><path fill="none" stroke="rgb(0,0,0)" class="dcg-svg-minor-gridline" paint-order="fill stroke markers" d=" M 426.5 0 L 426.5 400" stroke-opacity="0.3" stroke-miterlimit="10" stroke-dasharray=""/><path fill="none" stroke="rgb(0,0,0)" class="dcg-svg-minor-gridline" paint-order="fill stroke markers" d=" M 451.5 0 L 451.5 400" stroke-opacity="0.3" stroke-miterlimit="10" stroke-dasharray=""/><path fill="none" stroke="rgb(0,0,0)" class="dcg-svg-minor-gridline" paint-order="fill stroke markers" d=" M 476.5 0 L 476.5 400" stroke-opacity="0.3" stroke-miterlimit="10" stroke-dasharray=""/><path fill="none" stroke="rgb(0,0,0)" class="dcg-svg-minor-gridline" paint-order="fill stroke markers" d=" M 500.5 0 L 500.5 400" stroke-opacity="0.3" stroke-miterlimit="10" stroke-dasharray=""/><path fill="none" stroke="rgb(0,0,0)" class="dcg-svg-minor-gridline" paint-order="fill stroke markers" d=" M 525.5 0 L 525.5 400" stroke-opacity="0.3" stroke-miterlimit="10" stroke-dasharray=""/><path fill="none" stroke="rgb(0,0,0)" class="dcg-svg-minor-gridline" paint-order="fill stroke markers" d=" M 550.5 0 L 550.5 400" stroke-opacity="0.3" stroke-miterlimit="10" stroke-dasharray=""/><path fill="none" stroke="rgb(0,0,0)" class="dcg-svg-minor-gridline" paint-order="fill stroke markers" d=" M 574.5 0 L 574.5 400" stroke-opacity="0.3" stroke-miterlimit="10" stroke-dasharray=""/><path fill="none" stroke="rgb(0,0,0)" class="dcg-svg-minor-gridline" paint-order="fill stroke markers" d=" M 599.5 0 L 599.5 400" stroke-opacity="0.3" stroke-miterlimit="10" stroke-dasharray=""/><path fill="none" stroke="rgb(0,0,0)" class="dcg-svg-minor-gridline" paint-order="fill stroke markers" d=" M 0 378.5 L 600 378.5" stroke-opacity="0.3" stroke-miterlimit="10" stroke-dasharray=""/><path fill="none" stroke="rgb(0,0,0)" class="dcg-svg-minor-gridline" paint-order="fill stroke markers" d=" M 0 353.5 L 600 353.5" stroke-opacity="0.3" stroke-miterlimit="10" stroke-dasharray=""/><path fill="none" stroke="rgb(0,0,0)" class="dcg-svg-minor-gridline" paint-order="fill stroke markers" d=" M 0 329.5 L 600 329.5" stroke-opacity="0.3" stroke-miterlimit="10" stroke-dasharray=""/><path fill="none" stroke="rgb(0,0,0)" class="dcg-svg-minor-gridline" paint-order="fill stroke markers" d=" M 0 304.5 L 600 304.5" stroke-opacity="0.3" stroke-miterlimit="10" stroke-dasharray=""/><path fill="none" stroke="rgb(0,0,0)" class="dcg-svg-minor-gridline" paint-order="fill stroke markers" d=" M 0 279.5 L 600 279.5" stroke-opacity="0.3" stroke-miterlimit="10" stroke-dasharray=""/><path fill="none" stroke="rgb(0,0,0)" class="dcg-svg-minor-gridline" paint-order="fill stroke markers" d=" M 0 255.5 L 600 255.5" stroke-opacity="0.3" stroke-miterlimit="10" stroke-dasharray=""/><path fill="none" stroke="rgb(0,0,0)" class="dcg-svg-minor-gridline" paint-order="fill stroke markers" d=" M 0 230.5 L 600 230.5" stroke-opacity="0.3" stroke-miterlimit="10" stroke-dasharray=""/><path fill="none" stroke="rgb(0,0,0)" class="dcg-svg-minor-gridline" paint-order="fill stroke markers" d=" M 0 205.5 L 600 205.5" stroke-opacity="0.3" stroke-miterlimit="10" stroke-dasharray=""/><path fill="none" stroke="rgb(0,0,0)" class="dcg-svg-minor-gridline" paint-order="fill stroke markers" d=" M 0 181.5 L 600 181.5" stroke-opacity="0.3" stroke-miterlimit="10" stroke-dasharray=""/><path fill="none" stroke="rgb(0,0,0)" class="dcg-svg-minor-gridline" paint-order="fill stroke markers" d=" M 0 156.5 L 600 156.5" stroke-opacity="0.3" stroke-miterlimit="10" stroke-dasharray=""/><path fill="none" stroke="rgb(0,0,0)" class="dcg-svg-minor-gridline" paint-order="fill stroke markers" d=" M 0 132.5 L 600 132.5" stroke-opacity="0.3" stroke-miterlimit="10" stroke-dasharray=""/><path fill="none" stroke="rgb(0,0,0)" class="dcg-svg-minor-gridline" paint-order="fill stroke markers" d=" M 0 107.5 L 600 107.5" stroke-opacity="0.3" stroke-miterlimit="10" stroke-dasharray=""/><path fill="none" stroke="rgb(0,0,0)" class="dcg-svg-minor-gridline" paint-order="fill stroke markers" d=" M 0 82.5 L 600 82.5" stroke-opacity="0.3" stroke-miterlimit="10" stroke-dasharray=""/><path fill="none" stroke="rgb(0,0,0)" class="dcg-svg-minor-gridline" paint-order="fill stroke markers" d=" M 0 58.5 L 600 58.5" stroke-opacity="0.3" stroke-miterlimit="10" stroke-dasharray=""/><path fill="none" stroke="rgb(0,0,0)" class="dcg-svg-minor-gridline" paint-order="fill stroke markers" d=" M 0 33.5 L 600 33.5" stroke-opacity="0.3" stroke-miterlimit="10" stroke-dasharray=""/><path fill="none" stroke="rgb(0,0,0)" class="dcg-svg-minor-gridline" paint-order="fill stroke markers" d=" M 0 8.5 L 600 8.5" stroke-opacity="0.3" stroke-miterlimit="10" stroke-dasharray=""/><path fill="none" stroke="rgb(0,0,0)" class="dcg-svg-major-gridline" paint-order="fill stroke markers" d=" M 155.5 0 L 155.5 400" stroke-opacity="0.4285714285714285" stroke-miterlimit="10" stroke-dasharray=""/><path fill="none" stroke="rgb(0,0,0)" class="dcg-svg-major-gridline" paint-order="fill stroke markers" d=" M 278.5 0 L 278.5 400" stroke-opacity="0.4285714285714285" stroke-miterlimit="10" stroke-dasharray=""/><path fill="none" stroke="rgb(0,0,0)" class="dcg-svg-major-gridline" paint-order="fill stroke markers" d=" M 402.5 0 L 402.5 400" stroke-opacity="0.4285714285714285" stroke-miterlimit="10" stroke-dasharray=""/><path fill="none" stroke="rgb(0,0,0)" class="dcg-svg-major-gridline" paint-order="fill stroke markers" d=" M 525.5 0 L 525.5 400" stroke-opacity="0.4285714285714285" stroke-miterlimit="10" stroke-dasharray=""/><path fill="none" stroke="rgb(0,0,0)" class="dcg-svg-major-gridline" paint-order="fill stroke markers" d=" M 0 329.5 L 600 329.5" stroke-opacity="0.4285714285714285" stroke-miterlimit="10" stroke-dasharray=""/><path fill="none" stroke="rgb(0,0,0)" class="dcg-svg-major-gridline" paint-order="fill stroke markers" d=" M 0 205.5 L 600 205.5" stroke-opacity="0.4285714285714285" stroke-miterlimit="10" stroke-dasharray=""/><path fill="none" stroke="rgb(0,0,0)" class="dcg-svg-major-gridline" paint-order="fill stroke markers" d=" M 0 82.5 L 600 82.5" stroke-opacity="0.4285714285714285" stroke-miterlimit="10" stroke-dasharray=""/></g></g><g id="axis-04580deb"><g id="yaxis-04580deb"><title>Y axis</title><g><path fill="none" stroke="rgb(0,0,0)" class="dcg-svg-axis-line" paint-order="fill stroke markers" d=" M 32 0 L 32 400" stroke-opacity="0.9" stroke-miterlimit="10" stroke-width="2" stroke-dasharray=""/></g></g><g id="xaxis-04580deb"><title>X axis</title><g><path fill="none" stroke="rgb(0,0,0)" class="dcg-svg-axis-line" paint-order="fill stroke markers" d=" M 0 1808 L 600 1808" stroke-opacity="0.9" stroke-miterlimit="10" stroke-width="2" stroke-dasharray=""/></g></g><g><g class="dcg-svg-axis-value"><text fill="none" stroke="#ffffff" font-family="Arial" font-size="17px" font-style="normal" font-weight="normal" text-decoration="normal" x="22.616872491789707" y="1826.617073104979" text-anchor="middle" stroke-miterlimit="2" stroke-width="3" stroke-dasharray="">0</text><text fill="#000000" stroke="none" font-family="Arial" font-size="17px" font-style="normal" font-weight="normal" text-decoration="normal" x="22.616872491789707" y="1826.617073104979" text-anchor="middle">0</text></g><g class="dcg-svg-axis-value"><text fill="none" stroke="#ffffff" font-family="Arial" font-size="17px" font-style="normal" font-weight="normal" text-decoration="normal" x="155.61430133879563" y="393.124" text-anchor="middle" stroke-miterlimit="2" stroke-width="3" stroke-dasharray="">1800</text><text fill="rgb(150,150,150)" stroke="none" font-family="Arial" font-size="17px" font-style="normal" font-weight="normal" text-decoration="normal" x="155.61430133879563" y="393.124" text-anchor="middle" fill-opacity="1">1800</text></g><g class="dcg-svg-axis-value"><text fill="none" stroke="#ffffff" font-family="Arial" font-size="17px" font-style="normal" font-weight="normal" text-decoration="normal" x="278.88443526392655" y="393.124" text-anchor="middle" stroke-miterlimit="2" stroke-width="3" stroke-dasharray="">3600</text><text fill="rgb(150,150,150)" stroke="none" font-family="Arial" font-size="17px" font-style="normal" font-weight="normal" text-decoration="normal" x="278.88443526392655" y="393.124" text-anchor="middle" fill-opacity="1">3600</text></g><g class="dcg-svg-axis-value"><text fill="none" stroke="#ffffff" font-family="Arial" font-size="17px" font-style="normal" font-weight="normal" text-decoration="normal" x="402.1545691890575" y="393.124" text-anchor="middle" stroke-miterlimit="2" stroke-width="3" stroke-dasharray="">5400</text><text fill="rgb(150,150,150)" stroke="none" font-family="Arial" font-size="17px" font-style="normal" font-weight="normal" text-decoration="normal" x="402.1545691890575" y="393.124" text-anchor="middle" fill-opacity="1">5400</text></g><g class="dcg-svg-axis-value"><text fill="none" stroke="#ffffff" font-family="Arial" font-size="17px" font-style="normal" font-weight="normal" text-decoration="normal" x="525.4247031141883" y="393.124" text-anchor="middle" stroke-miterlimit="2" stroke-width="3" stroke-dasharray="">7200</text><text fill="rgb(150,150,150)" stroke="none" font-family="Arial" font-size="17px" font-style="normal" font-weight="normal" text-decoration="normal" x="525.4247031141883" y="393.124" text-anchor="middle" fill-opacity="1">7200</text></g><g class="dcg-svg-axis-value"><text fill="none" stroke="#ffffff" font-family="Arial" font-size="17px" font-style="normal" font-weight="normal" text-decoration="normal" x="26.636474609375" y="333.8754660033899" text-anchor="middle" stroke-miterlimit="2" stroke-width="3" stroke-dasharray="">21600</text><text fill="rgb(150,150,150)" stroke="none" font-family="Arial" font-size="17px" font-style="normal" font-weight="normal" text-decoration="normal" x="26.636474609375" y="333.8754660033899" text-anchor="middle" fill-opacity="1">21600</text></g><g class="dcg-svg-axis-value"><text fill="none" stroke="#ffffff" font-family="Arial" font-size="17px" font-style="normal" font-weight="normal" text-decoration="normal" x="26.636474609375" y="210.60533207825753" text-anchor="middle" stroke-miterlimit="2" stroke-width="3" stroke-dasharray="">23400</text><text fill="rgb(150,150,150)" stroke="none" font-family="Arial" font-size="17px" font-style="normal" font-weight="normal" text-decoration="normal" x="26.636474609375" y="210.60533207825753" text-anchor="middle" fill-opacity="1">23400</text></g><g class="dcg-svg-axis-value"><text fill="none" stroke="#ffffff" font-family="Arial" font-size="17px" font-style="normal" font-weight="normal" text-decoration="normal" x="26.636474609375" y="87.33519815312499" text-anchor="middle" stroke-miterlimit="2" stroke-width="3" stroke-dasharray="">25200</text><text fill="rgb(150,150,150)" stroke="none" font-family="Arial" font-size="17px" font-style="normal" font-weight="normal" text-decoration="normal" x="26.636474609375" y="87.33519815312499" text-anchor="middle" fill-opacity="1">25200</text></g></g></g></g><g id="expressions-04580deb"><g id="sketch-04580deb"><title/><path fill="#348543" stroke="none" class="dcg-svg-point" paint-order="stroke fill markers" d=" M 35.17461763687326 349.7964883242453 A 2.625 2.625 0 1 1 35.17461632437337 349.7938633246828 Z"/><path fill="#348543" stroke="none" class="dcg-svg-point" paint-order="stroke fill markers" d=" M 37.91395394632061 345.6874838600743 A 2.625 2.625 0 1 1 37.91395263382072 345.6848588605118 Z"/><path fill="#348543" stroke="none" class="dcg-svg-point" paint-order="stroke fill markers" d=" M 41.61205796407454 341.57847939590306 A 2.625 2.625 0 1 1 41.61205665157465 341.57585439634056 Z"/><path fill="#348543" stroke="none" class="dcg-svg-point" paint-order="stroke fill markers" d=" M 45.37864538956465 337.46947493173207 A 2.625 2.625 0 1 1 45.37864407706476 337.46684993216957 Z"/><path fill="#348543" stroke="none" class="dcg-svg-point" paint-order="stroke fill markers" d=" M 49.00826599958239 333.3604704675611 A 2.625 2.625 0 1 1 49.0082646870825 333.3578454679986 Z"/><path fill="#348543" stroke="none" class="dcg-svg-point" paint-order="stroke fill markers" d=" M 52.706370017336326 329.25146600338985 A 2.625 2.625 0 1 1 52.706368704836436 329.24884100382735 Z"/><path fill="#348543" stroke="none" class="dcg-svg-point" paint-order="stroke fill markers" d=" M 56.472957442826434 325.14246153921886 A 2.625 2.625 0 1 1 56.472956130326544 325.13983653965636 Z"/><path fill="#348543" stroke="none" class="dcg-svg-point" paint-order="stroke fill markers" d=" M 60.10257805284418 321.03345707504786 A 2.625 2.625 0 1 1 60.10257674034429 321.03083207548536 Z"/><path fill="#348543" stroke="none" class="dcg-svg-point" paint-order="stroke fill markers" d=" M 63.80068207059811 316.92445261087664 A 2.625 2.625 0 1 1 63.80068075809822 316.92182761131414 Z"/><path fill="#348543" stroke="none" class="dcg-svg-point" paint-order="stroke fill markers" d=" M 67.43030268061585 312.81544814670565 A 2.625 2.625 0 1 1 67.43030136811596 312.81282314714315 Z"/><path fill="#348543" stroke="none" class="dcg-svg-point" paint-order="stroke fill markers" d=" M 71.12840669836979 308.7064436825344 A 2.625 2.625 0 1 1 71.1284053858699 308.7038186829719 Z"/><path fill="#348543" stroke="none" class="dcg-svg-point" paint-order="stroke fill markers" d=" M 74.8265107161237 304.59743921836343 A 2.625 2.625 0 1 1 74.82650940362382 304.59481421880093 Z"/><path fill="#348543" stroke="none" class="dcg-svg-point" paint-order="stroke fill markers" d=" M 78.52461473387763 300.48843475419244 A 2.625 2.625 0 1 1 78.52461342137774 300.48580975462994 Z"/><path fill="#348543" stroke="none" class="dcg-svg-point" paint-order="stroke fill markers" d=" M 82.22271875163156 296.3794302900212 A 2.625 2.625 0 1 1 82.22271743913167 296.3768052904587 Z"/><path fill="#348543" stroke="none" class="dcg-svg-point" paint-order="stroke fill markers" d=" M 85.9208227693855 292.2704258258502 A 2.625 2.625 0 1 1 85.9208214568856 292.2678008262877 Z"/><path fill="#348543" stroke="none" class="dcg-svg-point" paint-order="stroke fill markers" d=" M 86.81110706995588 288.161421361679 A 2.625 2.625 0 1 1 86.81110575745599 288.1587963621165 Z"/><path fill="#348543" stroke="none" class="dcg-svg-point" paint-order="stroke fill markers" d=" M 87.22200751637298 284.052416897508 A 2.625 2.625 0 1 1 87.2220062038731 284.0497918979455 Z"/><path fill="#348543" stroke="none" class="dcg-svg-point" paint-order="stroke fill markers" d=" M 87.49594114731772 279.943412433337 A 2.625 2.625 0 1 1 87.49593983481783 279.9407874337745 Z"/><path fill="#348543" stroke="none" class="dcg-svg-point" paint-order="stroke fill markers" d=" M 87.76987477826245 275.8344079691658 A 2.625 2.625 0 1 1 87.76987346576256 275.8317829696033 Z"/><path fill="#348543" stroke="none" class="dcg-svg-point" paint-order="stroke fill markers" d=" M 88.24925863241575 271.7254035049948 A 2.625 2.625 0 1 1 88.24925731991586 271.7227785054323 Z"/><path fill="#348543" stroke="none" class="dcg-svg-point" paint-order="stroke fill markers" d=" M 88.52319226336047 267.6163990408238 A 2.625 2.625 0 1 1 88.52319095086058 267.6137740412613 Z"/><path fill="#348543" stroke="none" class="dcg-svg-point" paint-order="stroke fill markers" d=" M 88.79712589430521 263.5073945766526 A 2.625 2.625 0 1 1 88.79712458180532 263.5047695770901 Z"/><path fill="#348543" stroke="none" class="dcg-svg-point" paint-order="stroke fill markers" d=" M 89.07105952524995 259.3983901124816 A 2.625 2.625 0 1 1 89.07105821275006 259.3957651129191 Z"/><path fill="#348543" stroke="none" class="dcg-svg-point" paint-order="stroke fill markers" d=" M 89.41347656393086 255.28938564831037 A 2.625 2.625 0 1 1 89.41347525143097 255.28676064874787 Z"/><path fill="#348543" stroke="none" class="dcg-svg-point" paint-order="stroke fill markers" d=" M 90.23527745676506 251.18038118413938 A 2.625 2.625 0 1 1 90.23527614426517 251.17775618457688 Z"/><path fill="#348543" stroke="none" class="dcg-svg-point" paint-order="stroke fill markers" d=" M 93.04309717394861 247.07137671996838 A 2.625 2.625 0 1 1 93.04309586144872 247.06875172040588 Z"/><path fill="#348543" stroke="none" class="dcg-svg-point" paint-order="stroke fill markers" d=" M 96.67271778396636 242.96237225579716 A 2.625 2.625 0 1 1 96.67271647146647 242.95974725623466 Z"/><path fill="#348543" stroke="none" class="dcg-svg-point" paint-order="stroke fill markers" d=" M 100.3023383939841 238.85336779162617 A 2.625 2.625 0 1 1 100.30233708148421 238.85074279206367 Z"/><path fill="#348543" stroke="none" class="dcg-svg-point" paint-order="stroke fill markers" d=" M 103.93195900400184 234.74436332745495 A 2.625 2.625 0 1 1 103.93195769150195 234.74173832789245 Z"/><path fill="#348543" stroke="none" class="dcg-svg-point" paint-order="stroke fill markers" d=" M 107.56157961401958 230.63535886328395 A 2.625 2.625 0 1 1 107.56157830151969 230.63273386372146 Z"/><path fill="#348543" stroke="none" class="dcg-svg-point" paint-order="stroke fill markers" d=" M 111.25968363177351 226.52635439911296 A 2.625 2.625 0 1 1 111.25968231927362 226.52372939955046 Z"/><path fill="#348543" stroke="none" class="dcg-svg-point" paint-order="stroke fill markers" d=" M 114.88930424179125 222.41734993494174 A 2.625 2.625 0 1 1 114.88930292929136 222.41472493537924 Z"/><path fill="#348543" stroke="none" class="dcg-svg-point" paint-order="stroke fill markers" d=" M 118.518924851809 218.30834547077075 A 2.625 2.625 0 1 1 118.51892353930911 218.30572047120825 Z"/><path fill="#348543" stroke="none" class="dcg-svg-point" paint-order="stroke fill markers" d=" M 122.14854546182674 214.19934100659975 A 2.625 2.625 0 1 1 122.14854414932685 214.19671600703725 Z"/><path fill="#348543" stroke="none" class="dcg-svg-point" paint-order="stroke fill markers" d=" M 125.77816607184448 210.09033654242853 A 2.625 2.625 0 1 1 125.77816475934459 210.08771154286603 Z"/><path fill="#348543" stroke="none" class="dcg-svg-point" paint-order="stroke fill markers" d=" M 129.40778668186223 205.98133207825754 A 2.625 2.625 0 1 1 129.40778536936233 205.97870707869504 Z"/><path fill="#348543" stroke="none" class="dcg-svg-point" paint-order="stroke fill markers" d=" M 133.10589069961617 201.87232761408632 A 2.625 2.625 0 1 1 133.10588938711626 201.86970261452382 Z"/><path fill="#348543" stroke="none" class="dcg-svg-point" paint-order="stroke fill markers" d=" M 136.6670279018977 197.76332314991532 A 2.625 2.625 0 1 1 136.6670265893978 197.76069815035282 Z"/><path fill="#348543" stroke="none" class="dcg-svg-point" paint-order="stroke fill markers" d=" M 140.36513191965165 193.65431868574433 A 2.625 2.625 0 1 1 140.36513060715174 193.65169368618183 Z"/><path fill="#348543" stroke="none" class="dcg-svg-point" paint-order="stroke fill markers" d=" M 143.99475252966937 189.5453142215731 A 2.625 2.625 0 1 1 143.99475121716947 189.5426892220106 Z"/><path fill="#348543" stroke="none" class="dcg-svg-point" paint-order="stroke fill markers" d=" M 147.55588973195097 185.4363097574021 A 2.625 2.625 0 1 1 147.55588841945107 185.43368475783961 Z"/><path fill="#348543" stroke="none" class="dcg-svg-point" paint-order="stroke fill markers" d=" M 151.1170269342325 181.32730529323112 A 2.625 2.625 0 1 1 151.1170256217326 181.32468029366862 Z"/><path fill="#348543" stroke="none" class="dcg-svg-point" paint-order="stroke fill markers" d=" M 154.81513095198642 177.2183008290599 A 2.625 2.625 0 1 1 154.8151296394865 177.2156758294974 Z"/><path fill="#348543" stroke="none" class="dcg-svg-point" paint-order="stroke fill markers" d=" M 158.44475156200417 173.1092963648889 A 2.625 2.625 0 1 1 158.44475024950427 173.1066713653264 Z"/><path fill="#348543" stroke="none" class="dcg-svg-point" paint-order="stroke fill markers" d=" M 162.07437217202192 169.00029190071768 A 2.625 2.625 0 1 1 162.07437085952202 168.99766690115518 Z"/><path fill="#348543" stroke="none" class="dcg-svg-point" paint-order="stroke fill markers" d=" M 165.56702596656731 164.8912874365467 A 2.625 2.625 0 1 1 165.5670246540674 164.8886624369842 Z"/><path fill="#348543" stroke="none" class="dcg-svg-point" paint-order="stroke fill markers" d=" M 169.26512998432122 160.7822829723757 A 2.625 2.625 0 1 1 169.26512867182132 160.7796579728132 Z"/><path fill="#348543" stroke="none" class="dcg-svg-point" paint-order="stroke fill markers" d=" M 172.89475059433897 156.67327850820448 A 2.625 2.625 0 1 1 172.89474928183907 156.67065350864198 Z"/><path fill="#348543" stroke="none" class="dcg-svg-point" paint-order="stroke fill markers" d=" M 176.45588779662054 152.56427404403348 A 2.625 2.625 0 1 1 176.45588648412064 152.56164904447098 Z"/><path fill="#348543" stroke="none" class="dcg-svg-point" paint-order="stroke fill markers" d=" M 180.0170249989021 148.45526957986226 A 2.625 2.625 0 1 1 180.01702368640218 148.45264458029976 Z"/><path fill="#348543" stroke="none" class="dcg-svg-point" paint-order="stroke fill markers" d=" M 183.64664560891984 144.34626511569127 A 2.625 2.625 0 1 1 183.64664429641994 144.34364011612877 Z"/><path fill="#348543" stroke="none" class="dcg-svg-point" paint-order="stroke fill markers" d=" M 187.2762662189376 140.23726065152027 A 2.625 2.625 0 1 1 187.2762649064377 140.23463565195777 Z"/><path fill="#348543" stroke="none" class="dcg-svg-point" paint-order="stroke fill markers" d=" M 190.90588682895532 136.12825618734905 A 2.625 2.625 0 1 1 190.9058855164554 136.12563118778655 Z"/><path fill="#348543" stroke="none" class="dcg-svg-point" paint-order="stroke fill markers" d=" M 194.53550743897307 132.01925172317806 A 2.625 2.625 0 1 1 194.53550612647317 132.01662672361556 Z"/><path fill="#348543" stroke="none" class="dcg-svg-point" paint-order="stroke fill markers" d=" M 198.09664464125464 127.91024725900706 A 2.625 2.625 0 1 1 198.09664332875474 127.90762225944457 Z"/><path fill="#348543" stroke="none" class="dcg-svg-point" paint-order="stroke fill markers" d=" M 201.72626525127237 123.80124279483584 A 2.625 2.625 0 1 1 201.72626393877246 123.79861779527334 Z"/><path fill="#348543" stroke="none" class="dcg-svg-point" paint-order="stroke fill markers" d=" M 205.28740245355394 119.69223833066485 A 2.625 2.625 0 1 1 205.28740114105403 119.68961333110235 Z"/><path fill="#348543" stroke="none" class="dcg-svg-point" paint-order="stroke fill markers" d=" M 208.91702306357166 115.58323386649363 A 2.625 2.625 0 1 1 208.91702175107176 115.58060886693113 Z"/><path fill="#348543" stroke="none" class="dcg-svg-point" paint-order="stroke fill markers" d=" M 212.47816026585323 111.47422940232263 A 2.625 2.625 0 1 1 212.47815895335333 111.47160440276014 Z"/><path fill="#348543" stroke="none" class="dcg-svg-point" paint-order="stroke fill markers" d=" M 216.0392974681348 107.36522493815164 A 2.625 2.625 0 1 1 216.0392961556349 107.36259993858914 Z"/><path fill="#348543" stroke="none" class="dcg-svg-point" paint-order="stroke fill markers" d=" M 219.7374014858887 103.25622047398042 A 2.625 2.625 0 1 1 219.7374001733888 103.25359547441792 Z"/><path fill="#348543" stroke="none" class="dcg-svg-point" paint-order="stroke fill markers" d=" M 223.36702209590646 99.14721600980943 A 2.625 2.625 0 1 1 223.36702078340656 99.14459101024693 Z"/><path fill="#348543" stroke="none" class="dcg-svg-point" paint-order="stroke fill markers" d=" M 227.0651261136604 95.0382115456382 A 2.625 2.625 0 1 1 227.0651248011605 95.0355865460757 Z"/><path fill="#348543" stroke="none" class="dcg-svg-point" paint-order="stroke fill markers" d=" M 230.69474672367815 90.92920708146721 A 2.625 2.625 0 1 1 230.69474541117825 90.92658208190471 Z"/><path fill="#348543" stroke="none" class="dcg-svg-point" paint-order="stroke fill markers" d=" M 234.2558839259597 86.82020261729622 A 2.625 2.625 0 1 1 234.2558826134598 86.81757761773372 Z"/><path fill="#348543" stroke="none" class="dcg-svg-point" paint-order="stroke fill markers" d=" M 237.81702112824127 82.711198153125 A 2.625 2.625 0 1 1 237.81701981574136 82.7085731535625 Z"/><path fill="#348543" stroke="none" class="dcg-svg-point" paint-order="stroke fill markers" d=" M 241.5151251459952 78.602193688954 A 2.625 2.625 0 1 1 241.5151238334953 78.5995686893915 Z"/><path fill="#348543" stroke="none" class="dcg-svg-point" paint-order="stroke fill markers" d=" M 245.00777894054056 74.49318922478301 A 2.625 2.625 0 1 1 245.00777762804066 74.49056422522051 Z"/><path fill="#348543" stroke="none" class="dcg-svg-point" paint-order="stroke fill markers" d=" M 248.6373995505583 70.38418476061179 A 2.625 2.625 0 1 1 248.6373982380584 70.38155976104929 Z"/><path fill="#348543" stroke="none" class="dcg-svg-point" paint-order="stroke fill markers" d=" M 252.26702016057604 66.2751802964408 A 2.625 2.625 0 1 1 252.26701884807613 66.2725552968783 Z"/><path fill="#348543" stroke="none" class="dcg-svg-point" paint-order="stroke fill markers" d=" M 255.8966407705938 62.16617583226957 A 2.625 2.625 0 1 1 255.8966394580939 62.163550832707074 Z"/><path fill="#348543" stroke="none" class="dcg-svg-point" paint-order="stroke fill markers" d=" M 259.5262613806116 58.05717136809858 A 2.625 2.625 0 1 1 259.5262600681117 58.05454636853608 Z"/><path fill="#348543" stroke="none" class="dcg-svg-point" paint-order="stroke fill markers" d=" M 263.15588199062927 53.948166903927586 A 2.625 2.625 0 1 1 263.1558806781294 53.945541904365086 Z"/><path fill="#348543" stroke="none" class="dcg-svg-point" paint-order="stroke fill markers" d=" M 266.785502600647 49.839162439756365 A 2.625 2.625 0 1 1 266.78550128814715 49.836537440193865 Z"/><path fill="#348543" stroke="none" class="dcg-svg-point" paint-order="stroke fill markers" d=" M 270.3466398029286 45.73015797558537 A 2.625 2.625 0 1 1 270.34663849042875 45.72753297602287 Z"/><path fill="#348543" stroke="none" class="dcg-svg-point" paint-order="stroke fill markers" d=" M 273.90777700521016 41.62115351141415 A 2.625 2.625 0 1 1 273.9077756927103 41.61852851185165 Z"/></g><g id="sketch-04580deb"><title>Expression 9</title><path fill="#000000" stroke="none" paint-order="stroke fill markers" d="" fill-opacity="0.4"/><g><path fill="none" stroke="#000000" class="dcg-svg-curve" paint-order="fill stroke markers" d=" M 32.54961763687326 349.7964883242453 L 37.99433985200964 344.35176610910884 M 41.459163079823696 340.8869428812947 L 46.90388529496008 335.4422206661583 M 50.368708522774135 331.97739743834416 L 55.813430737910515 326.5326752232077 M 59.27825396572457 323.0678519953936 L 64.72297618086095 317.62312978025716 M 68.18779940867502 314.15830655244304 L 73.6325216238114 308.7135843373066 M 77.09734485162546 305.2487611094925 L 82.54206706676185 299.80403889435604 M 86.00689029457591 296.3392156665419 L 91.45161250971229 290.8944934514055 M 94.91643573752636 287.42967022359136 L 100.36115795266274 281.9849480084549 M 103.8259811804768 278.5201247806408 L 109.27070339561318 273.07540256550436 M 112.73552662342725 269.61057933769024 L 118.18024883856363 264.1658571225538 M 121.64507206637768 260.7010338947397 L 127.08979428151406 255.25631167960324 M 130.55461750932812 251.79148845178915 L 135.9993397244645 246.3467662366527 M 139.46416295227857 242.88194300883862 L 144.90888516741495 237.43722079370218 M 148.37370839522902 233.9723975658881 L 153.8184306103654 228.52767535075165 M 157.28325383817946 225.06285212293756 L 162.72797605331584 219.61812990780112 M 166.1927992811299 216.15330667998703 L 171.6375214962663 210.7085844648506 M 175.10234472408035 207.2437612370365 L 180.54706693921673 201.79903902190006 M 184.0118901670308 198.33421579408596 L 189.45661238216718 192.88949357894953 M 192.92143560998124 189.42467035113543 L 198.36615782511763 183.979948135999 M 201.8309810529317 180.5151249081849 L 207.27570326806807 175.07040269304846 M 210.74052649588214 171.60557946523437 L 216.18524871101852 166.16085725009793 M 219.65007193883255 162.69603402228384 L 225.09479415396893 157.2513118071474 M 228.55961738178297 153.7864885793333 L 234.00433959691935 148.34176636419687 M 237.4691628247334 144.87694313638278 L 242.91388503986977 139.43222092124634 M 246.3787082676838 135.96739769343225 L 251.82343048282019 130.5226754782958 M 255.28825371063422 127.0578522504817 L 260.7329759257706 121.61313003534525 M 264.19779915358464 118.14830680753116 L 269.642521368721 112.7035845923947 M 273.1073445965351 109.2387613645806 L 278.55206681167147 103.79403914944415 M 282.01689003948553 100.32921592163004 L 287.4616122546219 94.88449370649359 M 290.926435482436 91.41967047867948 L 296.37115769757236 85.97494826354304 M 299.8359809253864 82.51012503572893 L 305.2807031405228 77.06540282059248 M 308.74552636833687 73.60057959277839 L 314.1902485834732 68.15585737764194 M 317.65507181128726 64.69103414982784 L 323.0997940264236 59.2463119346914 M 326.56461725423765 55.7814887068773 L 332.00933946937397 50.33676649174085 M 335.47416269718804 46.87194326392675 L 340.72495244970054 41.62115351141415" stroke-linecap="round" stroke-linejoin="round" stroke-miterlimit="10" stroke-width="1.75" stroke-dasharray=""/></g></g></g><g id="labels-04580deb"/><g id="labels-04580deb"/></g></svg>